# xmcd CD Database Entry
#
# Track frame offsets:
# 150
# 13845
# 25322
# 37220
# 49237
# 61927
# 74722
# 88682
# 101887
# 115185
# 128437
# 142137
# 154700
# 168760
# 180842
# 193725
#
# Disc length: 2750 seconds
#
# Revision: 2
# Processed by: cddbd v1.5.2PL0 Copyright (c) Steve Scherf et al.
# Submitted via: RSJCDWriter_freedb_lib_OS/2 1.03
#
DISCID=e10abc10
DTITLE=Kalevi Tauru - CD1
DYEAR=2000
DGENRE=country
TTITLE0=Yksinäinen
TTITLE1=Surulliset silmät
TTITLE2=Laula se laulu minulle
TTITLE3=Niin kauan siitä on
TTITLE4=Rakkaalle äidille
TTITLE5=Hiljainen tango
TTITLE6=Yksin
TTITLE7=Muistojeni mailla
TTITLE8=Kukkia vaarille
TTITLE9=Sen hetken muistan
TTITLE10=Olet maailmani
TTITLE11=Kesäiltana kerran
TTITLE12=Valkoiset kielot
TTITLE13=Tule lähemmäksi
TTITLE14=Muistojen laulu
TTITLE15=Pieni leikki
EXTD=Suomen iskelmäkuningas 1952, 1953, 1954\nYEAR: 2000
EXTT0=YEAR: 1953
EXTT1=YEAR: 1953
EXTT2=YEAR: 1953
EXTT3=YEAR: 1953
EXTT4=YEAR: 1954
EXTT5=YEAR: 1954
EXTT6=YEAR: 1954
EXTT7=YEAR: 1954
EXTT8=YEAR: 1954
EXTT9=YEAR: 1954
EXTT10=YEAR: 1954
EXTT11=YEAR: 1954
EXTT12=YEAR: 1954
EXTT13=YEAR: 1954
EXTT14=YEAR: 1954
EXTT15=YEAR: 1954
PLAYORDER=
